# Blender v2.91.2 OBJ File: 'screw_head.blend'
# www.blender.org
mtllib screw_head.mtl
v -0.007620 0.007114 -0.136584
v 0.111218 0.007114 -0.067973
v 0.111218 0.007114 0.069250
v -0.007620 0.007114 0.137861
v -0.126458 0.007114 0.069250
v -0.126458 0.007114 -0.067973
v 0.001429 -0.093924 -0.220933
v 0.001429 0.077971 -0.220933
v 0.044507 -0.093924 -0.216690
v 0.044507 0.077971 -0.216690
v 0.085930 -0.093924 -0.204124
v 0.085930 0.077971 -0.204124
v 0.124106 -0.093924 -0.183719
v 0.124106 0.077971 -0.183719
v 0.157567 -0.093924 -0.156258
v 0.157567 0.077971 -0.156258
v 0.185028 -0.093924 -0.122797
v 0.185028 0.077971 -0.122797
v 0.205433 -0.093924 -0.084621
v 0.205433 0.077971 -0.084621
v 0.217999 -0.093924 -0.043198
v 0.217999 0.077971 -0.043198
v 0.222242 -0.093924 -0.000120
v 0.222242 0.077971 -0.000120
v 0.217999 -0.093924 0.042959
v 0.217999 0.077971 0.042959
v 0.205433 -0.093924 0.084382
v 0.205433 0.077971 0.084382
v 0.185028 -0.093924 0.122558
v 0.185028 0.077971 0.122558
v 0.157567 -0.093924 0.156019
v 0.157567 0.077971 0.156019
v 0.124106 -0.093924 0.183480
v 0.124106 0.077971 0.183480
v 0.085930 -0.093924 0.203885
v 0.085930 0.077971 0.203885
v 0.044507 -0.093924 0.216451
v 0.044507 0.077971 0.216451
v 0.001429 -0.093924 0.220694
v 0.001429 0.077971 0.220694
v -0.041650 -0.093924 0.216451
v -0.041650 0.077971 0.216451
v -0.083073 -0.093924 0.203885
v -0.083073 0.077971 0.203885
v -0.121249 -0.093924 0.183480
v -0.121249 0.077971 0.183480
v -0.154710 -0.093924 0.156019
v -0.154710 0.077971 0.156019
v -0.182171 -0.093924 0.122558
v -0.182171 0.077971 0.122558
v -0.202576 -0.093924 0.084382
v -0.202576 0.077971 0.084382
v -0.215142 -0.093924 0.042959
v -0.215142 0.077971 0.042959
v -0.219385 -0.093924 -0.000120
v -0.219385 0.077971 -0.000120
v -0.215142 -0.093924 -0.043198
v -0.215142 0.077971 -0.043198
v -0.202576 -0.093924 -0.084621
v -0.202576 0.077971 -0.084621
v -0.182171 -0.093924 -0.122797
v -0.182171 0.077971 -0.122797
v -0.154710 -0.093924 -0.156258
v -0.154710 0.077971 -0.156258
v -0.121248 -0.093924 -0.183719
v -0.121248 0.077971 -0.183719
v -0.083073 -0.093924 -0.204125
v -0.083073 0.077971 -0.204125
v -0.041650 -0.093924 -0.216690
v -0.041650 0.077971 -0.216690
v -0.007620 0.077971 -0.136584
v 0.111218 0.077971 -0.067973
v 0.111218 0.077971 0.069250
v -0.007620 0.077971 0.137861
v -0.126458 0.077971 0.069250
v -0.126458 0.077971 -0.067973
vt 1.000000 1.000000
vt 0.968750 0.500000
vt 1.000000 0.500000
vt 0.968750 1.000000
vt 0.937500 0.500000
vt 0.937500 1.000000
vt 0.906250 0.500000
vt 0.906250 1.000000
vt 0.875000 0.500000
vt 0.875000 1.000000
vt 0.843750 0.500000
vt 0.843750 1.000000
vt 0.812500 0.500000
vt 0.812500 1.000000
vt 0.781250 0.500000
vt 0.781250 1.000000
vt 0.750000 0.500000
vt 0.750000 1.000000
vt 0.718750 0.500000
vt 0.718750 1.000000
vt 0.687500 0.500000
vt 0.687500 1.000000
vt 0.656250 0.500000
vt 0.656250 1.000000
vt 0.625000 0.500000
vt 0.625000 1.000000
vt 0.593750 0.500000
vt 0.593750 1.000000
vt 0.562500 0.500000
vt 0.562500 1.000000
vt 0.531250 0.500000
vt 0.531250 1.000000
vt 0.500000 0.500000
vt 0.500000 1.000000
vt 0.468750 0.500000
vt 0.468750 1.000000
vt 0.437500 0.500000
vt 0.437500 1.000000
vt 0.406250 0.500000
vt 0.406250 1.000000
vt 0.375000 0.500000
vt 0.375000 1.000000
vt 0.343750 0.500000
vt 0.343750 1.000000
vt 0.312500 0.500000
vt 0.312500 1.000000
vt 0.281250 0.500000
vt 0.281250 1.000000
vt 0.250000 0.500000
vt 0.250000 1.000000
vt 0.218750 0.500000
vt 0.218750 1.000000
vt 0.187500 0.500000
vt 0.187500 1.000000
vt 0.156250 0.500000
vt 0.156250 1.000000
vt 0.125000 0.500000
vt 0.125000 1.000000
vt 0.093750 0.500000
vt 0.093750 1.000000
vt 0.062500 0.500000
vt 0.062500 1.000000
vt 0.031250 0.500000
vt 0.031250 1.000000
vt 0.000000 0.500000
vt 0.616663 0.050447
vt 0.514611 0.203179
vt 0.703179 0.485389
vt 1.000000 0.500000
vt 0.833333 0.604693
vt 1.000000 0.604693
vt 0.666667 0.500000
vt 0.833333 0.500000
vt 0.500000 0.500000
vt 0.666667 0.604693
vt 0.333333 0.500000
vt 0.500000 0.604693
vt 0.166667 0.604693
vt 0.333333 0.604693
vt 0.166667 0.500000
vt -0.000000 0.604693
vt 0.542154 0.130000
vt 0.750000 0.010000
vt 0.957846 0.130000
vt 0.341844 0.471731
vt 0.240165 0.398322
vt 0.369329 0.323749
vt 0.240165 0.100030
vt 0.111001 0.174603
vt 0.116663 0.050447
vt 0.000000 1.000000
vt 0.750000 0.490000
vt 0.796822 0.485388
vt 0.841844 0.471731
vt 0.883337 0.449553
vt 0.919706 0.419706
vt 0.949553 0.383337
vt 0.971731 0.341844
vt 0.985388 0.296822
vt 0.990000 0.250000
vt 0.949553 0.116663
vt 0.985388 0.203178
vt 0.971731 0.158156
vt 0.919706 0.080294
vt 0.883337 0.050447
vt 0.841844 0.028269
vt 0.796822 0.014612
vt 0.750000 0.010000
vt 0.703178 0.014612
vt 0.658156 0.028269
vt 0.580294 0.080294
vt 0.550447 0.116663
vt 0.528269 0.158156
vt 0.510000 0.250000
vt 0.514612 0.296822
vt 0.528269 0.341844
vt 0.550447 0.383337
vt 0.580295 0.419706
vt 0.616663 0.449553
vt 0.658156 0.471731
vt -0.000000 0.500000
vt 0.957846 0.370000
vt 0.750000 0.490000
vt 0.542154 0.370000
vt 0.369329 0.174603
vt 0.471731 0.158156
vt 0.485388 0.203178
vt 0.490000 0.250000
vt 0.485388 0.296822
vt 0.471731 0.341844
vt 0.449553 0.383337
vt 0.419706 0.419706
vt 0.383337 0.449553
vt 0.296822 0.485388
vt 0.250000 0.490000
vt 0.203179 0.485389
vt 0.158156 0.471731
vt 0.116663 0.449553
vt 0.080295 0.419706
vt 0.111001 0.323749
vt 0.050447 0.383337
vt 0.028269 0.341844
vt 0.014612 0.296822
vt 0.010000 0.250000
vt 0.014611 0.203179
vt 0.028269 0.158156
vt 0.050447 0.116663
vt 0.080294 0.080294
vt 0.158156 0.028269
vt 0.203178 0.014612
vt 0.250000 0.010000
vt 0.296822 0.014612
vt 0.341844 0.028269
vt 0.383337 0.050447
vt 0.419706 0.080294
vt 0.449553 0.116663
vn 0.0980 0.0000 -0.9952
vn 0.2903 0.0000 -0.9569
vn 0.4714 0.0000 -0.8819
vn 0.6344 0.0000 -0.7730
vn 0.7730 0.0000 -0.6344
vn 0.8819 0.0000 -0.4714
vn 0.9569 0.0000 -0.2903
vn 0.9952 0.0000 -0.0980
vn 0.9952 0.0000 0.0980
vn 0.9569 0.0000 0.2903
vn 0.8819 0.0000 0.4714
vn 0.7730 0.0000 0.6344
vn 0.6344 0.0000 0.7730
vn 0.4714 0.0000 0.8819
vn 0.2903 0.0000 0.9569
vn 0.0980 0.0000 0.9952
vn -0.0980 0.0000 0.9952
vn -0.2903 0.0000 0.9569
vn -0.4714 0.0000 0.8819
vn -0.6344 0.0000 0.7730
vn -0.7730 0.0000 0.6344
vn -0.8819 0.0000 0.4714
vn -0.9569 0.0000 0.2903
vn -0.9952 0.0000 0.0980
vn -0.9952 0.0000 -0.0980
vn -0.9569 0.0000 -0.2903
vn -0.8819 0.0000 -0.4714
vn -0.7730 0.0000 -0.6344
vn -0.6344 0.0000 -0.7730
vn -0.4714 0.0000 -0.8819
vn -0.2903 0.0000 -0.9569
vn -0.0980 0.0000 -0.9952
vn 0.0000 -1.0000 0.0000
vn -0.5000 0.0000 0.8660
vn -1.0000 0.0000 0.0000
vn -0.5000 0.0000 -0.8660
vn 0.5000 0.0000 -0.8660
vn 1.0000 0.0000 0.0000
vn 0.5000 0.0000 0.8660
vn 0.0000 1.0000 0.0000
usemtl None
s off
f 8/1/1 9/2/1 7/3/1
f 10/4/2 11/5/2 9/2/2
f 12/6/3 13/7/3 11/5/3
f 14/8/4 15/9/4 13/7/4
f 16/10/5 17/11/5 15/9/5
f 18/12/6 19/13/6 17/11/6
f 20/14/7 21/15/7 19/13/7
f 22/16/8 23/17/8 21/15/8
f 24/18/9 25/19/9 23/17/9
f 26/20/10 27/21/10 25/19/10
f 28/22/11 29/23/11 27/21/11
f 30/24/12 31/25/12 29/23/12
f 32/26/13 33/27/13 31/25/13
f 34/28/14 35/29/14 33/27/14
f 36/30/15 37/31/15 35/29/15
f 38/32/16 39/33/16 37/31/16
f 40/34/17 41/35/17 39/33/17
f 42/36/18 43/37/18 41/35/18
f 44/38/19 45/39/19 43/37/19
f 46/40/20 47/41/20 45/39/20
f 48/42/21 49/43/21 47/41/21
f 50/44/22 51/45/22 49/43/22
f 52/46/23 53/47/23 51/45/23
f 54/48/24 55/49/24 53/47/24
f 56/50/25 57/51/25 55/49/25
f 58/52/26 59/53/26 57/51/26
f 60/54/27 61/55/27 59/53/27
f 62/56/28 63/57/28 61/55/28
f 64/58/29 65/59/29 63/57/29
f 66/60/30 67/61/30 65/59/30
f 68/62/31 69/63/31 67/61/31
f 70/64/32 7/65/32 69/63/32
f 45/66/33 53/67/33 69/68/33
f 1/69/34 72/70/34 71/71/34
f 3/72/35 72/70/35 2/73/35
f 4/74/36 73/75/36 3/72/36
f 5/76/37 74/77/37 4/74/37
f 5/76/38 76/78/38 75/79/38
f 6/80/39 71/81/39 76/78/39
f 5/82/40 4/83/40 3/84/40
f 12/85/40 71/86/40 72/87/40
f 74/88/40 75/89/40 46/90/40
f 8/1/1 10/4/1 9/2/1
f 10/4/2 12/6/2 11/5/2
f 12/6/3 14/8/3 13/7/3
f 14/8/4 16/10/4 15/9/4
f 16/10/5 18/12/5 17/11/5
f 18/12/6 20/14/6 19/13/6
f 20/14/7 22/16/7 21/15/7
f 22/16/8 24/18/8 23/17/8
f 24/18/9 26/20/9 25/19/9
f 26/20/10 28/22/10 27/21/10
f 28/22/11 30/24/11 29/23/11
f 30/24/12 32/26/12 31/25/12
f 32/26/13 34/28/13 33/27/13
f 34/28/14 36/30/14 35/29/14
f 36/30/15 38/32/15 37/31/15
f 38/32/16 40/34/16 39/33/16
f 40/34/17 42/36/17 41/35/17
f 42/36/18 44/38/18 43/37/18
f 44/38/19 46/40/19 45/39/19
f 46/40/20 48/42/20 47/41/20
f 48/42/21 50/44/21 49/43/21
f 50/44/22 52/46/22 51/45/22
f 52/46/23 54/48/23 53/47/23
f 54/48/24 56/50/24 55/49/24
f 56/50/25 58/52/25 57/51/25
f 58/52/26 60/54/26 59/53/26
f 60/54/27 62/56/27 61/55/27
f 62/56/28 64/58/28 63/57/28
f 64/58/29 66/60/29 65/59/29
f 66/60/30 68/62/30 67/61/30
f 68/62/31 70/64/31 69/63/31
f 70/64/32 8/91/32 7/65/32
f 69/68/33 7/92/33 9/93/33
f 9/93/33 11/94/33 13/95/33
f 13/95/33 15/96/33 17/97/33
f 17/97/33 19/98/33 21/99/33
f 21/99/33 23/100/33 29/101/33
f 23/100/33 25/102/33 29/101/33
f 25/102/33 27/103/33 29/101/33
f 29/101/33 31/104/33 33/105/33
f 33/105/33 35/106/33 37/107/33
f 37/107/33 39/108/33 41/109/33
f 41/109/33 43/110/33 45/66/33
f 45/66/33 47/111/33 49/112/33
f 49/112/33 51/113/33 45/66/33
f 51/113/33 53/67/33 45/66/33
f 53/67/33 55/114/33 57/115/33
f 57/115/33 59/116/33 61/117/33
f 61/117/33 63/118/33 69/68/33
f 63/118/33 65/119/33 69/68/33
f 65/119/33 67/120/33 69/68/33
f 69/68/33 9/93/33 13/95/33
f 13/95/33 17/97/33 21/99/33
f 29/101/33 33/105/33 21/99/33
f 33/105/33 37/107/33 21/99/33
f 37/107/33 41/109/33 45/66/33
f 53/67/33 57/115/33 69/68/33
f 57/115/33 61/117/33 69/68/33
f 69/68/33 13/95/33 37/107/33
f 13/95/33 21/99/33 37/107/33
f 37/107/33 45/66/33 69/68/33
f 1/69/34 2/73/34 72/70/34
f 3/72/35 73/75/35 72/70/35
f 4/74/36 74/77/36 73/75/36
f 5/76/37 75/79/37 74/77/37
f 5/76/38 6/80/38 76/78/38
f 6/80/39 1/121/39 71/81/39
f 3/84/40 2/122/40 5/82/40
f 2/122/40 1/123/40 5/82/40
f 1/123/40 6/124/40 5/82/40
f 73/125/40 28/126/40 26/127/40
f 26/127/40 24/128/40 73/125/40
f 24/128/40 22/129/40 72/87/40
f 73/125/40 24/128/40 72/87/40
f 22/129/40 20/130/40 72/87/40
f 20/130/40 18/131/40 72/87/40
f 18/131/40 16/132/40 72/87/40
f 16/132/40 14/133/40 72/87/40
f 14/133/40 12/85/40 72/87/40
f 12/85/40 10/134/40 71/86/40
f 10/134/40 8/135/40 71/86/40
f 8/135/40 70/136/40 71/86/40
f 70/136/40 68/137/40 71/86/40
f 68/137/40 66/138/40 71/86/40
f 66/138/40 64/139/40 76/140/40
f 64/139/40 62/141/40 76/140/40
f 62/141/40 60/142/40 76/140/40
f 76/140/40 71/86/40 66/138/40
f 76/140/40 60/142/40 58/143/40
f 58/143/40 56/144/40 76/140/40
f 56/144/40 54/145/40 75/89/40
f 76/140/40 56/144/40 75/89/40
f 54/145/40 52/146/40 75/89/40
f 52/146/40 50/147/40 75/89/40
f 50/147/40 48/148/40 75/89/40
f 48/148/40 46/90/40 75/89/40
f 46/90/40 44/149/40 74/88/40
f 44/149/40 42/150/40 74/88/40
f 42/150/40 40/151/40 74/88/40
f 40/151/40 38/152/40 74/88/40
f 38/152/40 36/153/40 74/88/40
f 36/153/40 34/154/40 73/125/40
f 74/88/40 36/153/40 73/125/40
f 34/154/40 32/155/40 73/125/40
f 32/155/40 30/156/40 73/125/40
f 30/156/40 28/126/40 73/125/40
